<?xml version="1.0" encoding="utf-8"?>
<!-- Generator: Adobe Illustrator 21.1.0, SVG Export Plug-In . SVG Version: 6.00 Build 0)  -->
<svg version="1.1" xmlns="http://www.w3.org/2000/svg" xmlns:xlink="http://www.w3.org/1999/xlink" x="0px" y="0px"
	 viewBox="0 0 680 140" style="enable-background:new 0 0 680 140;" xml:space="preserve">
<style type="text/css">
	.st0{display:none;}
	.st1{display:inline;}
	.st2{fill:#FFFFFF;}
	.st3{fill:#FFC20E;}
	.st4{fill:#FAFBFC;}
	.st5{fill:#FAC310;}
	.st6{fill:#96989A;}
	.st7{fill:#656565;}
	.st8{fill:#6DCC2F;}
	.st9{fill:#27AE60;}
	.st10{fill:#0084DD;}
	.st11{fill:none;stroke:#27AE60;stroke-width:13;stroke-linecap:round;stroke-miterlimit:10;}
	.st12{fill:#F6C600;}
</style>
<g id="bg" class="st0">
	<rect x="0.2" y="-0.1" class="st1" width="679.6" height="140.1"/>
</g>
<g id="reference_icon" class="st0">
	
		<image style="display:inline;overflow:visible;" width="680" height="140" xlink:href="D6948B8CD0ECEB80.png"  transform="matrix(0.9994 0 0 0.9994 0 -0.5716)">
	</image>
</g>
<g id="Layer_1">
	<path class="st2" d="M43.6,61.2c-0.4,0.5-0.8,0.9-1.2,1.3l-0.1,0.1c-0.1,0.1-0.3,0.3-0.4,0.4l-0.2,0.2c-0.1,0.1-0.3,0.3-0.4,0.4
		l-0.1,0.1l0,0c0,0.4,0,0.9-0.1,1.3c0,0.1,0,0.1,0,0.1c-0.1,1.4-0.4,2.8-0.9,4.1h-5.6c0.3-1.8,0.5-3.7,0.5-5.6c-0.4-0.4-1-1-1.7-1.8
		c0,0.6,0,1.2,0,1.7c0,1.9-0.2,3.8-0.5,5.6h-8.4V58.1h5.9c-0.3-0.5-0.7-1.1-0.9-1.7h-4.9V46.3c1.6,0.2,3.1,1.2,4.3,2.6
		c0.2-0.6,0.4-1.1,0.7-1.6l0,0l0,0c0.2-0.4,0.4-0.7,0.7-1l0.1-0.2c0.2-0.3,0.5-0.6,0.8-0.9C20.9,41.1,9.3,46,5.1,56.3
		S6,78.2,16.2,82.3c10.3,4.1,21.9-0.8,26.1-11.1c1-2.4,1.4-4.9,1.4-7.5C43.7,62.9,43.7,62.1,43.6,61.2z M22.9,81.2
		c-3.6-0.5-6.6-4.5-8-10.1h8V81.2z M39.6,71.1c-2,4.3-5.6,7.6-10.1,9.2c2.1-2.1,3.8-5.3,4.8-9.2L39.6,71.1z M32.6,71.1
		c-1.4,5.6-4.5,9.6-8,10.1V71.1H32.6z M22.9,69.4h-8.4c-0.7-3.7-0.7-7.5,0-11.2h8.4L22.9,69.4z M6.2,63.8c0-1.9,0.3-3.8,0.9-5.6h5.6
		c-0.7,3.7-0.7,7.5,0,11.2H7.2C6.5,67.6,6.2,65.7,6.2,63.8L6.2,63.8z M14.9,56.4c1.4-5.6,4.5-9.6,8-10.1v10.1H14.9z M17.9,47.2
		c-2.2,2.1-3.9,5.4-4.8,9.3H7.8C9.8,52.1,13.4,48.8,17.9,47.2z M7.8,71.1h5.4c1,3.9,2.7,7.1,4.8,9.3C13.4,78.7,9.8,75.4,7.8,71.1z"
		/>
	<path class="st2" d="M38.2,44.6c-4.1,0-7.5,3.3-7.5,7.5c0,4.5,6.5,10.4,6.6,10.4c0.5,0.4,1.2,0.4,1.7,0c0.1-0.1,6.6-5.9,6.6-10.4
		C45.6,48,42.3,44.6,38.2,44.6z M38.2,59.7l-0.1-0.1c-1.9-1.8-4.7-5.4-4.7-7.5c0-2.6,2.1-4.8,4.8-4.8c2.6,0,4.8,2.1,4.8,4.8
		c0,2-2.4,5.3-4.7,7.5L38.2,59.7z"/>
	<circle class="st3" cx="38.2" cy="52.1" r="2.4"/>
	<path class="st3" d="M42.1,34.7c0.3-0.3,0.7-0.5,1.1-0.5c3.8-0.3,7.3,1,9.9,3.5s3.9,6,3.7,9.8c0,0.9-0.8,1.6-1.8,1.6
		c-0.9,0-1.6-0.8-1.6-1.8c0.1-2.8-0.8-5.4-2.7-7.2c-1.9-1.8-4.5-2.7-7.3-2.6c-0.9,0.1-1.7-0.6-1.8-1.6C41.6,35.5,41.8,35,42.1,34.7
		L42.1,34.7z"/>
	<path class="st3" d="M41.6,40.2c0.3-0.3,0.6-0.5,1-0.5c4.3-0.4,8.2,2.8,8.5,7.1c0,0.4,0,0.8,0,1.3c-0.1,0.9-0.8,1.6-1.7,1.5
		C48.6,49.6,48,48.8,48,48c0.2-2.6-1.7-4.8-4.2-5c-0.3,0-0.6,0-0.9,0c-0.9,0.1-1.7-0.6-1.7-1.5C41.1,41,41.3,40.5,41.6,40.2
		L41.6,40.2z"/>
	<path class="st3" d="M310.7,34.8c0.2-0.3,0.6-0.4,0.9-0.4c3.3-0.2,6.3,0.8,8.5,3c2.2,2.2,3.4,5.2,3.2,8.4c-0.1,0.8-0.7,1.4-1.5,1.3
		c-0.8-0.1-1.4-0.7-1.3-1.5c0.1-2.4-0.7-4.6-2.3-6.2c-1.6-1.6-3.8-2.4-6.3-2.2c-0.8,0.1-1.5-0.5-1.5-1.3
		C310.2,35.5,310.4,35.1,310.7,34.8z"/>
	<path class="st3" d="M310.2,39.6c0.2-0.2,0.6-0.4,0.9-0.4c3.7-0.3,7,2.4,7.4,6.1c0,0.4,0,0.7,0,1.1c-0.1,0.8-0.7,1.3-1.5,1.3
		c-0.7-0.1-1.3-0.7-1.3-1.4c0.2-2.2-1.4-4.1-3.6-4.3c-0.3,0-0.5,0-0.8,0c-0.8,0.1-1.4-0.5-1.5-1.3C309.8,40.3,310,39.9,310.2,39.6z"
		/>
	<path class="st2" d="M330.2,63.9L314.7,61c-2.4-4.8-7.1-8.1-12.5-8.6v-9.1c0-0.8-0.6-1.5-1.4-1.5c-0.8,0-1.5,0.6-1.5,1.4
		c0,0,0,0.1,0,0.1v9.1c-5.4,0.5-10.1,3.7-12.5,8.6l-15.5,2.9c-0.8,0.1-1.3,0.9-1.1,1.7c0.1,0.8,0.9,1.3,1.7,1.1l0,0l4.7-0.9
		c-0.3,0.7-0.4,1.4-0.4,2.1c0,3.2,2.6,5.9,5.9,5.9c1.4,0,2.7-0.5,3.8-1.4c2.5,8.3,11.1,13,19.4,10.5c5.1-1.5,9-5.5,10.5-10.5
		c1.1,0.9,2.4,1.4,3.8,1.4c3.2,0,5.9-2.6,5.9-5.9c0-0.7-0.1-1.4-0.4-2.1l4.7,0.9c0.8,0.1,1.5-0.5,1.6-1.3
		C331.3,64.7,330.8,64.1,330.2,63.9z M282,71c-1.7,0-3-1.4-3-3c0-1.7,1.4-3,3-3c1.7,0,3,1.4,3,3l0,0C285,69.6,283.7,71,282,71z
		 M300.7,80.7c-7,0-12.7-5.7-12.7-12.7c0-7,5.7-12.7,12.7-12.7c7,0,12.7,5.7,12.7,12.7C313.4,75,307.7,80.7,300.7,80.7z M319.4,71
		c-1.7,0-3-1.4-3-3c0-1.7,1.4-3,3-3c1.7,0,3,1.4,3,3C322.4,69.6,321.1,71,319.4,71L319.4,71z"/>
	<path class="st2" d="M306.9,59.9h-12.5c-0.6,0-1.1,0.3-1.3,0.8l-2.9,6.1c-0.3,0.7,0,1.6,0.7,1.9c0.2,0.1,0.4,0.1,0.6,0.1h18.3
		c0.8,0,1.4-0.6,1.4-1.4c0-0.2,0-0.4-0.1-0.6l-2.9-6.1C308,60.2,307.4,59.9,306.9,59.9z M293.8,66l1.5-3.3H306l1.5,3.3H293.8z"/>
	<circle class="st3" cx="300.8" cy="74.2" r="2.9"/>
	<path class="st4" d="M371.8,67h-5.6c-0.6,0-1.1-0.5-1.1-1.1c0-0.6,0.5-1.1,1.1-1.1h5.6c0.6,0,1.1,0.5,1.1,1.1
		C372.9,66.5,372.4,67,371.8,67z"/>
	<path class="st4" d="M371.4,58.8H367c-0.6,0-1.1-0.5-1.1-1.1c0-0.6,0.5-1.1,1.1-1.1h4.5c0.6,0,1.1,0.5,1.1,1.1
		C372.5,58.3,372,58.8,371.4,58.8L371.4,58.8z"/>
	<path class="st4" d="M370.9,50.6h-3.5c-0.6,0-1.1-0.5-1.1-1.1s0.5-1.1,1.1-1.1h3.5c0.6,0,1.1,0.5,1.1,1.1S371.5,50.6,370.9,50.6z"
		/>
	<path class="st2" d="M411.8,46.7c-0.4-0.2-0.9-0.2-1.3,0l-11,6.9v-5.9c0-0.7-0.6-1.3-1.3-1.3c-0.2,0-0.5,0.1-0.7,0.2l-11.3,7v-5.9
		c0-0.7-0.6-1.3-1.3-1.3c-0.2,0-0.4,0.1-0.6,0.2l-8.3,4.7l-0.8-9.6c0-1.6-1.4-3-3-2.9h-2.9c-1.6,0-3,1.3-3,3l-2.2,32
		c0,0,0,0.1,0,0.1c0,1.7,1.3,3,3,3H380v-2.5h-12.9c-0.2,0-0.5-0.2-0.5-0.4l2.2-31.9c0,0,0-0.1,0-0.1c0-0.3,0.2-0.5,0.5-0.5h2.9
		c0.3,0,0.5,0.2,0.5,0.5c0,0,0,0.1,0,0.1l2.2,26.2c0,0.7,0.6,1.2,1.3,1.2c0.7,0,1.2-0.6,1.2-1.3c0,0,0-0.1,0-0.1l-1.1-13.8l7.5-4.2
		v6c0,0.7,0.6,1.3,1.3,1.3c0.2,0,0.5-0.1,0.7-0.2l11.3-7v5.9c0,0.7,0.6,1.3,1.3,1.3c0.2,0,0.5-0.1,0.7-0.2l11-6.9v24.3h-11.4v2.5
		h12.7c0.7,0,1.3-0.6,1.3-1.3V47.8C412.5,47.3,412.2,46.9,411.8,46.7z"/>
	<path class="st2" d="M381.5,68.5c-1.1,0-2.1,0.9-2.1,2.1v11.7c0,1.1,0.9,2.1,2.1,2.1h16.3c1.1,0,2.1-0.9,2.1-2.1V70.6
		c0-1.1-0.9-2.1-2.1-2.1h-1.3v-4.3c0-3.8-3.1-6.8-6.9-6.8s-6.8,3.1-6.8,6.9v4.3H381.5z M397.9,82.5h-16.6v-12h16.6V82.5z
		 M394.4,68.5H385v-4.3c-0.1-2.6,1.9-4.8,4.5-5c2.6-0.1,4.8,1.9,5,4.5c0,0.2,0,0.3,0,0.5L394.4,68.5z"/>
	<path class="st5" d="M390,72.6c-1.3,0-2.3,1-2.3,2.3c0,0.8,0.5,1.6,1.2,2V80h2.2v-3.1c1.1-0.6,1.5-2,0.9-3.1
		C391.6,73,390.8,72.6,390,72.6L390,72.6z"/>
	<rect x="402" y="59.7" class="st5" width="5" height="5"/>
	<rect x="402" y="66.5" class="st5" width="5" height="5"/>
	<path class="st3" d="M134.1,34.9c0.3-0.3,0.7-0.5,1.1-0.5c3.9-0.3,7.5,1,10.1,3.6c2.7,2.6,4,6.2,3.8,10c-0.1,1-0.9,1.7-1.8,1.6
		c-0.9-0.1-1.6-0.8-1.6-1.8c0.1-2.9-0.9-5.5-2.8-7.4s-4.6-2.8-7.5-2.6c-0.9,0.1-1.8-0.6-1.8-1.6C133.6,35.7,133.8,35.2,134.1,34.9
		L134.1,34.9z"/>
	<path class="st3" d="M133.6,40.6c0.3-0.3,0.7-0.5,1.1-0.5c4.4-0.4,8.4,2.9,8.8,7.3c0,0.4,0,0.9,0,1.3c-0.1,0.9-0.9,1.6-1.8,1.5
		c-0.9-0.1-1.6-0.8-1.5-1.7c0.2-2.6-1.7-4.9-4.4-5.1c-0.3,0-0.6,0-0.9,0c-0.9,0.1-1.7-0.6-1.8-1.5C133.1,41.4,133.2,40.9,133.6,40.6
		L133.6,40.6z"/>
	<path class="st2" d="M145.2,55.4l-8.3-2.2v-3.1c0-2-1.6-3.5-3.5-3.5h-2.9v-4.2c0-0.8-0.6-1.4-1.4-1.4s-1.4,0.6-1.4,1.4v4.2h-2.8
		c-1.6,0-3,1.1-3.4,2.6L96,42.5c-0.8-0.2-1.5,0.3-1.7,1c-0.2,0.8,0.3,1.5,1,1.7l6.5,1.7v7.8L96,63.4c-0.4,0.6-0.2,1.5,0.4,1.9
		c0.6,0.4,1.5,0.2,1.9-0.4l0,0l4.8-7.3l4.6,7.2c0.4,0.7,1.3,0.8,1.9,0.4c0.7-0.4,0.8-1.3,0.4-1.9l-5.6-8.8v-6.9l16.8,4.4v2.6
		c0,1.7,1.2,3.1,2.9,3.5v25.6c0,0,0,0,0,0.1c0,0.2,0,0.4,0.1,0.5c0.2,0.5,0.7,0.9,1.3,0.9l0,0l7.3-0.1c0.8,0,1.4-0.6,1.4-1.4V58.1
		c1.1-0.3,1.9-1,2.4-2l7.9,2.1c0.1,0,0.2,0,0.4,0c0.8,0,1.4-0.6,1.4-1.4C146.2,56.2,145.8,55.6,145.2,55.4z M124.1,50.2
		c0-0.4,0.3-0.7,0.7-0.7h8.5c0.4,0,0.7,0.3,0.7,0.7v4.5c0,0.4-0.3,0.7-0.7,0.7h-8.5c-0.4,0-0.7-0.3-0.7-0.7L124.1,50.2z M126.9,60.2
		l3.7,3.5l-3.7,3.5L126.9,60.2z M126.9,73.6l3.7,3.5l-3.7,3.5V73.6z M131.4,82.3l-2.3,0l2.3-2.2L131.4,82.3z M131.4,74l-3.8-3.6
		l3.8-3.6V74z M128.9,58.2h2.6v2.4L128.9,58.2z"/>
	<path class="st3" d="M111.2,74.2H94.8c-0.8,0-1.5-0.7-1.5-1.5c0,0,0,0,0,0V65c0-0.8,0.7-1.5,1.5-1.5h16.4c0.8,0,1.5,0.7,1.5,1.5
		v7.7C112.6,73.5,112,74.2,111.2,74.2C111.2,74.2,111.2,74.2,111.2,74.2z M96.3,71.3h13.4v-4.8H96.3V71.3z"/>
	<path class="st3" d="M214.5,34.6c0.3-0.3,0.6-0.5,1-0.5c3.6-0.2,6.9,0.9,9.4,3.3c2.5,2.4,3.7,5.7,3.5,9.3c-0.1,0.9-0.8,1.5-1.7,1.5
		c-0.9-0.1-1.5-0.8-1.5-1.6c0.1-2.7-0.8-5.1-2.6-6.9c-1.8-1.7-4.2-2.6-6.9-2.4c-0.9,0.1-1.6-0.6-1.7-1.5
		C214,35.4,214.2,34.9,214.5,34.6L214.5,34.6z"/>
	<path class="st3" d="M214,39.9c0.3-0.3,0.6-0.4,1-0.5c4.1-0.4,7.8,2.7,8.1,6.8c0,0.4,0,0.8,0,1.2c-0.1,0.8-0.8,1.5-1.6,1.4
		c-0.8-0.1-1.4-0.7-1.4-1.6c0.2-2.4-1.6-4.6-4-4.8c-0.3,0-0.6,0-0.8,0c-0.8,0.1-1.6-0.6-1.6-1.4C213.5,40.6,213.7,40.2,214,39.9
		L214,39.9z"/>
	<path class="st2" d="M237,84.6h-52.9c-0.7,0-1.4-0.5-1.4-1.3c0-0.7,0.5-1.4,1.3-1.4c0,0,0.1,0,0.1,0H237c0.7,0,1.3,0.6,1.3,1.3
		C238.4,84,237.8,84.6,237,84.6L237,84.6z"/>
	<path class="st2" d="M196.2,84.1c-0.7,0-1.3-0.6-1.3-1.3c0,0,0,0,0,0v-9.4c0-0.7,0.5-1.4,1.3-1.4c0.7,0,1.4,0.5,1.4,1.3
		c0,0,0,0.1,0,0.1v9.4C197.6,83.5,197,84.1,196.2,84.1z"/>
	<path class="st2" d="M233,84.3h-3.2c-1.1,0-2-0.9-2-2v-2.7h-17.2v2.7c0,1.1-0.9,2-2,2h-3.2c-1.1,0-2-0.9-2-2l0-9.4
		c0-2.1,0.7-3.2,1.6-4.1H205c-0.7,0-1.2-0.5-1.3-1.2s0.5-1.2,1.2-1.3c0,0,0.1,0,0.1,0h2.4l2.2-3.9c0.9-1.6,2.6-2.7,4.5-2.7h10.3
		c1.9,0,3.6,1,4.5,2.7l2.2,3.9h2.4c0.7,0,1.2,0.6,1.2,1.3c0,0.6-0.5,1.1-1.2,1.2h-0.1c0.9,0.9,1.6,2,1.6,4.1l0,9.4
		C234.9,83.4,234,84.3,233,84.3z M230.2,81.9h2.2l0-9c0-1.6-0.6-2.2-1.5-3l-0.2-0.2c-0.6-0.6-1.3-1.2-1.9-2.2l-2.2-3.9
		c-0.5-0.9-1.4-1.4-2.4-1.4H214c-1,0-1.9,0.5-2.4,1.4l-2.2,3.9c-0.6,1-1.3,1.6-1.9,2.2l-0.2,0.2c-0.9,0.8-1.5,1.4-1.5,3l0,9h2.2
		v-2.3c-0.7-0.2-1-0.8-0.9-1.5c0.1-0.5,0.6-0.9,1.2-0.9h21.4c0.7,0,1.2,0.5,1.2,1.2c0,0.5-0.3,1-0.8,1.1L230.2,81.9z"/>
	<path class="st2" d="M222.9,76.2c-0.7,0-1.2-0.6-1.2-1.2v-2.9c0-0.7,0.6-1.2,1.2-1.2s1.2,0.6,1.2,1.2V75
		C224.1,75.7,223.6,76.2,222.9,76.2z"/>
	<path class="st2" d="M229.7,74.8h-2.9c-0.7,0-1.2-0.6-1.2-1.2c0-0.7,0.6-1.2,1.2-1.2h2.9c0.7,0,1.2,0.6,1.2,1.2
		S230.3,74.8,229.7,74.8C229.6,74.8,229.6,74.8,229.7,74.8L229.7,74.8z"/>
	<path class="st2" d="M211.7,74.8h-2.9c-0.7,0-1.2-0.6-1.2-1.2c0-0.7,0.6-1.2,1.2-1.2h2.9c0.7,0,1.2,0.6,1.2,1.2
		S212.4,74.8,211.7,74.8C211.7,74.8,211.7,74.8,211.7,74.8z"/>
	<path class="st2" d="M219.2,76.2c-0.7,0-1.2-0.6-1.2-1.2v-2.9c0-0.7,0.6-1.2,1.2-1.2c0.7,0,1.2,0.6,1.2,1.2c0,0,0,0,0,0V75
		C220.4,75.7,219.9,76.2,219.2,76.2z"/>
	<path class="st2" d="M215.5,76.2c-0.7,0-1.3-0.6-1.3-1.2v-2.9c0-0.7,0.6-1.2,1.2-1.2c0.7,0,1.2,0.6,1.2,1.2c0,0,0,0,0,0V75
		C216.8,75.7,216.2,76.2,215.5,76.2z"/>
	<path class="st2" d="M199.1,73.9h-5.8c-0.6,0-1-0.4-1-1v-4.7c0-0.6,0.4-1,1-1s1,0.4,1,1c0,0,0,0.1,0,0.1v3.7h3.8v-3.7
		c0-0.6,0.4-1,1-1s1,0.4,1,1c0,0,0,0.1,0,0.1v4.7C200.1,73.5,199.6,73.9,199.1,73.9C199.1,73.9,199.1,73.9,199.1,73.9z"/>
	<path class="st2" d="M200.3,68.7h-8.2c-0.4,0-0.7-0.2-0.9-0.5c-0.4-0.9-0.6-1.8-0.6-2.8c0-3.1,2.5-5.6,5.6-5.6
		c3.1,0,5.6,2.5,5.6,5.6c0,0,0,0,0,0c0,1-0.2,1.9-0.6,2.8C201,68.5,200.6,68.7,200.3,68.7z M192.8,66.7h6.8c0.1-0.4,0.2-0.9,0.2-1.3
		c0-2-1.7-3.6-3.7-3.5c-1.9,0-3.5,1.6-3.5,3.5C192.6,65.9,192.7,66.3,192.8,66.7z"/>
	<path class="st2" d="M210,57.7h-9.1c-0.6,0-1.1-0.5-1.1-1.1v-16c0-0.6,0.5-1.1,1.1-1.1c0,0,0,0,0,0h9.1c0.6,0,1.1,0.5,1.1,1.1l0,0
		v16C211.1,57.2,210.6,57.7,210,57.7C210,57.7,210,57.7,210,57.7z M202,55.5h6.9V41.7H202V55.5z"/>
	<circle class="st2" cx="205.3" cy="52.7" r="1.6"/>
	<circle class="st5" cx="205.3" cy="48.6" r="1.6"/>
	<circle class="st2" cx="205.3" cy="44.5" r="1.6"/>
	<path class="st2" d="M187.4,84.4c-0.7,0-1.3-0.6-1.3-1.3V48.5c0-0.7,0.6-1.3,1.3-1.3l12.7,0l0,0c0.7,0,1.3,0.7,1.3,1.4
		c0,0.7-0.6,1.3-1.3,1.3l-11.4,0v33.2C188.7,83.8,188.1,84.4,187.4,84.4z"/>
	<path class="st2" d="M213.9,49.8h-3.6c-0.7,0-1.3-0.7-1.3-1.4c0-0.7,0.6-1.3,1.3-1.3h3.6c0.7,0,1.3,0.7,1.3,1.4
		C215.2,49.3,214.6,49.8,213.9,49.8L213.9,49.8z"/>
	<path class="st3" d="M198.2,66.1c-0.4,0-0.7-0.3-0.7-0.7c0-0.7-0.6-1.3-1.3-1.3s-1.3,0.6-1.3,1.3c0,0.4-0.3,0.7-0.7,0.7
		c-0.4,0-0.6-0.3-0.7-0.7c0-1.5,1.2-2.7,2.7-2.7c1.5,0,2.7,1.2,2.7,2.7C198.9,65.8,198.6,66.1,198.2,66.1z"/>
	<path class="st2" d="M500.6,52.1c-0.4,0-0.8,0-1.1,0.1c-0.9-4.4-5.2-7.3-9.6-6.4c-2,0.4-3.8,1.6-5,3.3c-2.8-0.5-5.4,1.4-5.8,4.1
		c-0.1,0.8-0.1,1.6,0.2,2.4c-1.2,0.7-2.1,1.9-2.6,3.2l2.2,1.6c0.1-1.4,1.1-2.7,2.4-3.1c0.7-0.2,1-0.9,0.8-1.5c0-0.1-0.1-0.2-0.2-0.3
		c-0.8-1.2-0.5-2.8,0.7-3.6c0.7-0.5,1.6-0.6,2.4-0.3c0.6,0.2,1.2,0,1.5-0.6c1.5-2.8,4.9-3.8,7.7-2.3c1.8,1,3,2.9,3,5
		c0,0.7,0.6,1.2,1.2,1.2c0.2,0,0.3,0,0.4-0.1c2.4-1,5.2,0.2,6.2,2.7c0.2,0.6,0.3,1.2,0.3,1.8c0,2.5-1.9,4.5-4.4,4.8
		c-0.1,0-0.1,0-0.2,0h-17.3l3.3,2.5h14.4c0.1,0,0.3,0,0.4-0.1c4-0.5,6.8-4.1,6.3-8.1C507.3,54.8,504.2,52.1,500.6,52.1L500.6,52.1z"
		/>
	<path class="st3" d="M465.6,40.4c0-0.4,0.1-0.8,0.4-1.1c2.3-2.7,5.5-4.2,8.9-4.2c3.4,0,6.6,1.4,9,4c0.6,0.6,0.5,1.6-0.1,2.2
		c-0.6,0.6-1.6,0.5-2.2-0.1l0,0c-1.8-2-4.1-3-6.6-3c-2.5,0-4.8,1.2-6.6,3.2c-0.6,0.7-1.6,0.7-2.2,0.2
		C465.8,41.3,465.6,40.9,465.6,40.4L465.6,40.4z"/>
	<path class="st3" d="M469,44.5c0-0.4,0.1-0.7,0.4-1c2.6-3.1,7.3-3.6,10.4-1c0.3,0.3,0.6,0.5,0.9,0.8c0.6,0.6,0.5,1.6-0.1,2.2
		c-0.6,0.6-1.6,0.5-2.2-0.1c-1.6-1.8-4.3-2.1-6.2-0.5c-0.2,0.2-0.4,0.4-0.6,0.6c-0.6,0.6-1.5,0.7-2.1,0.1
		C469.2,45.3,469,44.9,469,44.5L469,44.5z"/>
	<path class="st2" d="M492.9,69.3l-17.1-12.7c-0.5-0.4-1.2-0.4-1.6,0l-3.2,2.3v-2c0-0.8-0.6-1.4-1.4-1.4l0,0l0,0l-5.8,0
		c-0.8,0-1.4,0.6-1.4,1.4v8.2l-5.5,4.2c-0.6,0.5-0.7,1.3-0.3,1.9c0.5,0.6,1.3,0.7,1.9,0.3l1.7-1.3v13.6c0,0.8,0.6,1.4,1.4,1.4
		c0,0,0,0,0,0h10c0.8,0,1.4-0.6,1.4-1.4c0,0,0,0,0,0v-8.5h4.5v8.5c0,0.8,0.6,1.4,1.4,1.4c0,0,0,0,0,0h9.7c0.8,0,1.4-0.6,1.4-1.4
		c0,0,0,0,0,0V70.5l1.3,1c0.6,0.5,1.5,0.3,1.9-0.3S493.5,69.7,492.9,69.3L492.9,69.3L492.9,69.3z M487.2,82.5h-7v-9.9h-9.9v9.9H463
		V68.2l2.1-1.6v-8.3l3,0v6l6.7-5l12.2,9.1V82.5z"/>
	<path class="st2" d="M457.1,64.2h-5.4c-1.6,0-3-1.3-3-3V50.6c0-1.6,1.3-3,3-3h5.4c1.6,0,3,1.3,3,3v10.7
		C460.1,62.9,458.8,64.2,457.1,64.2z M451.8,49.9c-0.4,0-0.7,0.3-0.7,0.7v10.7c0,0.4,0.3,0.7,0.7,0.7h5.4c0.4,0,0.7-0.3,0.7-0.7
		V50.6c0-0.4-0.3-0.7-0.7-0.7H451.8z"/>
	<circle class="st5" cx="454.4" cy="59.2" r="1.5"/>
	<circle class="st4" cx="464.4" cy="51.8" r="1.4"/>
	<circle class="st2" cx="469.4" cy="51.8" r="1.4"/>
	<circle class="st2" cx="474.4" cy="51.8" r="1.4"/>
	<path class="st3" d="M569.7,34.2c0.3-0.3,0.6-0.4,1-0.5c3.6-0.2,6.9,0.9,9.3,3.3c2.4,2.4,3.7,5.7,3.5,9.2c-0.1,0.9-0.8,1.5-1.7,1.5
		c-0.8-0.1-1.5-0.8-1.5-1.6c0.1-2.7-0.8-5.1-2.6-6.8c-1.8-1.7-4.2-2.6-6.9-2.4c-0.9,0.1-1.6-0.6-1.7-1.5
		C569.2,35,569.4,34.6,569.7,34.2z"/>
	<path class="st3" d="M569.2,39.5c0.3-0.3,0.6-0.4,1-0.5c4.1-0.4,7.7,2.6,8.1,6.7c0,0.4,0,0.8,0,1.2c-0.1,0.8-0.8,1.5-1.6,1.4
		c-0.8-0.1-1.4-0.7-1.4-1.6c0.2-2.4-1.6-4.5-4-4.7c-0.3,0-0.6,0-0.8,0c-0.8,0.1-1.6-0.6-1.6-1.4C568.7,40.2,568.9,39.8,569.2,39.5z"
		/>
	<path class="st2" d="M554.4,55.2c-0.6,0-1.1-0.5-1.1-1.1c0-0.1,0-0.2,0-0.3l2.2-7.9c0.2-0.6,0.8-0.9,1.4-0.8
		c0.2,0.1,0.4,0.1,0.5,0.3l4.1,4.1c0.4,0.4,0.4,1.2,0,1.6c-0.4,0.4-1.1,0.4-1.6,0l-2.8-2.7l-1.7,6.1
		C555.3,54.9,554.9,55.2,554.4,55.2z"/>
	<path class="st2" d="M573,55.2c-0.5,0-1-0.3-1.1-0.8l-1.7-6.1l-2.8,2.7c-0.5,0.4-1.2,0.4-1.6,0c-0.4-0.4-0.4-1.1,0-1.6l4.1-4.1
		c0.4-0.4,1.2-0.4,1.6,0c0.1,0.1,0.2,0.3,0.3,0.5l2.2,7.9c0.2,0.6-0.2,1.2-0.8,1.4C573.2,55.2,573.1,55.2,573,55.2L573,55.2z"/>
	<path class="st2" d="M576.6,57.6h-25.7c-0.6,0-1.1-0.5-1.1-1.1s0.5-1.1,1.1-1.1h25.7c0.6,0,1.1,0.5,1.1,1.1S577.3,57.6,576.6,57.6z
		"/>
	<path class="st4" d="M550.9,60.3c-0.6,0-1.1-0.5-1.1-1.1v-2.7c0-0.4,0.2-0.8,0.5-1l9.9-6.1c0.2-0.1,0.4-0.2,0.6-0.2h5.5
		c0.6,0,1.1,0.5,1.1,1.1c0,0.6-0.5,1.1-1.1,1.1h-5.2l-9.1,5.6v2C552,59.8,551.5,60.3,550.9,60.3C550.9,60.3,550.9,60.3,550.9,60.3z"
		/>
	<path class="st2" d="M576.6,60.3c-0.6,0-1.1-0.5-1.1-1.1v-2l-9.1-5.6h-4c-0.6,0-1.1-0.5-1.1-1.1s0.5-1.1,1.1-1.1h4.3
		c0.2,0,0.4,0.1,0.6,0.2l9.9,6.1c0.3,0.2,0.5,0.6,0.5,1v2.7C577.8,59.8,577.3,60.3,576.6,60.3z"/>
	<path class="st2" d="M552.1,84.8c-0.7,0-1.2-0.6-1.2-1.2c0-0.1,0-0.2,0-0.3l8.7-33c0.2-0.7,0.9-1,1.5-0.9c0.6,0.2,1,0.8,0.9,1.5
		L554.6,79l14.8-16.2c0.5-0.5,1.3-0.5,1.8-0.1s0.5,1.3,0.1,1.8l0,0L553,84.4C552.8,84.6,552.4,84.8,552.1,84.8z"/>
	<path class="st2" d="M576.1,84.8c-0.3,0-0.7-0.1-0.9-0.4l-18.5-19.5c-0.5-0.5-0.5-1.3,0-1.8c0.5-0.5,1.3-0.5,1.8,0l15,15.8l-8-28.1
		c-0.2-0.7,0.2-1.4,0.9-1.5c0.7-0.2,1.3,0.2,1.5,0.9l9.4,33c0.2,0.7-0.2,1.4-0.9,1.5C576.3,84.8,576.2,84.8,576.1,84.8L576.1,84.8z"
		/>
	<path class="st2" d="M569.1,63.4h-10.5c-0.6,0-1.1-0.5-1.1-1.1c0-0.6,0.5-1.1,1.1-1.1h10.5c0.6,0,1.1,0.5,1.1,1.1
		C570.2,62.9,569.7,63.4,569.1,63.4z"/>
	<path class="st2" d="M579.1,68.1c-0.4,0-0.8-0.4-0.8-0.8c0-0.1,0-0.2,0-0.2l1.5-4.8c0.1-0.4,0.6-0.7,1-0.5c0.1,0,0.3,0.1,0.4,0.2
		l2.3,2.6c0.3,0.3,0.3,0.8,0,1.1c-0.3,0.3-0.8,0.3-1.1,0c0,0,0,0-0.1-0.1l-1.4-1.5l-1.1,3.4C579.8,67.9,579.5,68.1,579.1,68.1z"/>
	<path class="st2" d="M590.1,68.1c-0.4,0-0.7-0.2-0.8-0.6l-1-3.4l-1.4,1.5c-0.3,0.3-0.8,0.3-1.1,0c-0.3-0.3-0.3-0.8-0.1-1.1L588,62
		c0.3-0.3,0.8-0.4,1.1-0.1c0.1,0.1,0.2,0.2,0.2,0.4l1.4,4.7c0.1,0.4-0.1,0.9-0.5,1C590.2,68.1,590.1,68.1,590.1,68.1L590.1,68.1z"/>
	<path class="st2" d="M592.4,69.5h-15.5c-0.4,0-0.8-0.4-0.8-0.8c0-0.4,0.3-0.7,0.8-0.8h15.5c0.4,0,0.8,0.4,0.8,0.8
		C593.1,69.2,592.8,69.5,592.4,69.5L592.4,69.5z"/>
	<path class="st4" d="M576.9,71.1c-0.4,0-0.8-0.4-0.8-0.8l0,0v-1.6c0-0.3,0.2-0.5,0.4-0.7l6.1-3.6c0.1-0.1,0.3-0.1,0.4-0.1h3.1
		c0.4,0,0.8,0.4,0.8,0.8c0,0.4-0.3,0.7-0.8,0.8h-2.9l-5.5,3.2v1.1C577.7,70.8,577.3,71.1,576.9,71.1z"/>
	<path class="st2" d="M592.4,71.1c-0.4,0-0.8-0.4-0.8-0.8v-1.1l-5.5-3.3h-2.2c-0.4,0-0.8-0.4-0.8-0.8c0-0.4,0.4-0.7,0.8-0.8h2.4
		c0.1,0,0.3,0,0.4,0.1l6.1,3.6c0.2,0.1,0.4,0.4,0.4,0.7v1.6C593.2,70.8,592.8,71.1,592.4,71.1C592.4,71.1,592.4,71.1,592.4,71.1z"/>
	<path class="st4" d="M578.1,84.6c-0.4,0-0.8-0.4-0.8-0.8c0-0.1,0-0.1,0-0.2l5.2-18.7c0.1-0.4,0.5-0.7,1-0.6c0.4,0.1,0.7,0.5,0.6,1
		c0,0,0,0,0,0.1L579.7,81l8.1-8.3c0.3-0.3,0.8-0.3,1.1,0c0.3,0.3,0.3,0.8,0,1.1l-10.3,10.6C578.5,84.6,578.3,84.6,578.1,84.6z"/>
	<path class="st4" d="M591.6,84.6c-0.2,0-0.4-0.1-0.6-0.2l-10.5-10.3c-0.3-0.3-0.3-0.8,0-1.1c0.3-0.3,0.8-0.3,1.1,0l8.2,8.1
		l-4.7-15.7c-0.1-0.4,0.1-0.9,0.5-1s0.9,0.1,1,0.5c0,0,0,0,0,0.1l5.6,18.7c0.1,0.4-0.1,0.9-0.5,1C591.8,84.6,591.7,84.7,591.6,84.6
		L591.6,84.6z"/>
	<path class="st4" d="M587.6,73.1h-5.9c-0.4,0-0.8-0.4-0.8-0.8c0-0.4,0.3-0.7,0.8-0.8h5.9c0.4,0,0.8,0.4,0.8,0.8
		C588.4,72.7,588.1,73.1,587.6,73.1L587.6,73.1z"/>
	<path class="st2" d="M594.8,85.9h-46.8c-0.7,0-1.2-0.6-1.2-1.2c0-0.7,0.6-1.2,1.2-1.2h46.8c0.7,0,1.2,0.6,1.2,1.2
		C596,85.3,595.4,85.9,594.8,85.9L594.8,85.9z"/>
	<g>
		<path class="st3" d="M666.1,36.1c0.3-0.3,0.6-0.4,1-0.5c3.5-0.2,6.7,0.9,9.1,3.2c2.4,2.3,3.6,5.5,3.4,9c0,0.9-0.8,1.5-1.6,1.5
			c-0.9,0-1.5-0.8-1.5-1.6c0.1-2.6-0.8-5-2.5-6.7c-1.7-1.7-4.1-2.5-6.7-2.4c-0.9,0.1-1.6-0.6-1.7-1.4
			C665.6,36.8,665.8,36.4,666.1,36.1L666.1,36.1z"/>
	</g>
	<g>
		<path class="st3" d="M665.6,41.2c0.2-0.3,0.6-0.4,1-0.4c2.2-0.2,4.2,0.6,5.7,2c1.5,1.5,2.3,3.5,2.2,5.7c0,0.8-0.7,1.5-1.6,1.4
			c-0.8,0-1.5-0.7-1.4-1.6c0.1-1.3-0.4-2.6-1.3-3.4c-0.9-0.9-2.1-1.3-3.5-1.2c-0.8,0.1-1.5-0.6-1.6-1.4
			C665.1,41.9,665.3,41.5,665.6,41.2L665.6,41.2z"/>
	</g>
	<g>
		<circle class="st2" cx="669.3" cy="77.7" r="1.6"/>
		<path class="st2" d="M648.8,51.9c1.2,0,2.4-0.5,3.3-1.2l6.4,4.4c-0.2,0.5-0.3,1-0.3,1.6c0,0.2,0,0.3,0.1,0.5l-3.9,2.3
			c-0.7,0.4-0.9,1.3-0.6,2l3.2,6.3c0.3,0.5,0.8,0.8,1.3,0.8c0.2,0,0.5-0.1,0.7-0.2c0.7-0.4,1-1.3,0.7-2l-2.6-5l2.3-1.4
			c1,1.1,2.4,1.9,4,1.9c1.6,0,3.1-0.8,4-1.9l2.4,1.4l-2.6,5c-0.4,0.7-0.1,1.7,0.7,2c0.2,0.1,0.5,0.2,0.7,0.2c0.5,0,1.1-0.3,1.3-0.8
			l3.2-6.3c0.4-0.7,0.1-1.6-0.6-2l-4-2.4c0,0,0,0,0,0c0-0.1,0-0.3,0-0.4c0-2.9-2.3-5.2-5.2-5.2c-1.2,0-2.3,0.4-3.2,1.1l-6.5-4.4
			c0.1-0.5,0.3-1,0.3-1.5c0-2.9-2.3-5.2-5.2-5.2c-2.9,0-5.2,2.3-5.2,5.2c0,1.2,0.5,2.4,1.2,3.3l-4.6,8c-0.5-0.1-1-0.2-1.5-0.2
			c-2.9,0-5.2,2.3-5.2,5.2c0,2.3,1.5,4.2,3.6,4.9v4.9c0,0.1,0,0.1,0,0.2l-6.7,3.4c-0.5,0.3-0.8,0.8-0.8,1.3v4.7
			c0,0.8,0.7,1.5,1.5,1.5h14.9c0.8,0,1.5-0.7,1.5-1.5v-4.7c0-0.6-0.3-1.1-0.8-1.3l-6.7-3.6c0,0,0,0,0-0.1v-4.8
			c2.2-0.6,3.8-2.6,3.8-5c0-1.2-0.5-2.4-1.2-3.3l4.6-8C647.8,51.8,648.3,51.9,648.8,51.9z M663.4,54.6c1.2,0,2.2,1,2.2,2.2
			c0,1.2-1,2.2-2.2,2.2c-1.2,0-2.2-1-2.2-2.2C661.2,55.5,662.2,54.6,663.4,54.6z M648.8,44.6c1.2,0,2.2,1,2.2,2.2
			c0,0.4-0.1,0.8-0.3,1.1c0,0,0,0-0.1,0.1c0,0,0,0.1,0,0.1c-0.4,0.5-1,0.9-1.7,0.9c-1.2,0-2.2-1-2.2-2.2S647.6,44.6,648.8,44.6z
			 M644.6,81h-11.9v-2.3l6.1-3.1l5.8,3.1V81z M638.7,65.1c-1.2,0-2.2-1-2.2-2.2c0-1.2,1-2.2,2.2-2.2s2.2,1,2.2,2.2
			C640.9,64.2,639.9,65.1,638.7,65.1z"/>
		<path class="st2" d="M669.7,71.6h-12.9c-3.4,0-6.1,2.8-6.1,6.1c0,3.4,2.8,6.1,6.1,6.1h12.9c3.4,0,6.1-2.8,6.1-6.1
			C675.9,74.3,673.1,71.6,669.7,71.6z M669.7,80.9h-12.9c-1.7,0-3.1-1.4-3.1-3.1s1.4-3.1,3.1-3.1h12.9c1.7,0,3.1,1.4,3.1,3.1
			S671.5,80.9,669.7,80.9z"/>
		<circle class="st2" cx="657.3" cy="77.7" r="1.6"/>
		<circle class="st2" cx="663.4" cy="77.7" r="1.6"/>
	</g>
	<path class="st3" d="M665.1,71.6v-6.5c0-0.9-0.8-1.7-1.7-1.7h0c-0.9,0-1.7,0.8-1.7,1.7v6.5H665.1z"/>
</g>
</svg>
