<?xml version="1.0" encoding="utf-8"?>
<!-- Generator: Adobe Illustrator 21.1.0, SVG Export Plug-In . SVG Version: 6.00 Build 0)  -->
<svg version="1.1" id="Layer_1" xmlns="http://www.w3.org/2000/svg" xmlns:xlink="http://www.w3.org/1999/xlink" x="0px" y="0px"
	 viewBox="0 0 98 35" style="enable-background:new 0 0 98 35;" xml:space="preserve">
<style type="text/css">
	.st0{fill:#F6C600;}
	.st1{fill:#FFFFFF;}
</style>
<path class="st0" d="M6.1,25.9v-1c-0.6,0.7-1.6,1.1-2.5,1.1c-0.9,0-1.8-0.3-2.5-0.9c-1-1-1.1-2.8-1.1-4.3c0-1.5,0-3.3,1.1-4.3
	c0.7-0.6,1.6-1,2.5-0.9c1,0,1.9,0.3,2.5,1V12h2.5v13.9H6.1z M4.3,17.9c-1.5,0-1.7,1.2-1.7,2.9s0.2,2.9,1.7,2.9S6,22.5,6,20.8
	S5.8,17.9,4.3,17.9z"/>
<path class="st0" d="M12.8,21.6c-0.1,1.1,0.8,2.2,1.9,2.3c0.1,0,0.2,0,0.3,0c0.9,0,1.7-0.3,2.3-1l1.5,1.5c-1,1.1-2.4,1.7-3.9,1.6
	c-2.4,0-4.7-1.1-4.7-5.2c0-3.3,1.8-5.2,4.5-5.2c2.8,0,4.5,2.1,4.5,4.9v1.1H12.8z M16.4,18.8c-0.5-1-1.6-1.3-2.6-0.8
	c-0.3,0.2-0.6,0.5-0.8,0.8c-0.1,0.3-0.2,0.7-0.2,1.1h3.9C16.7,19.5,16.6,19.1,16.4,18.8L16.4,18.8z"/>
<path class="st0" d="M25.1,25.9h-2l-3.7-10.2h2.7l2.1,6.3l2.1-6.3h2.7L25.1,25.9z"/>
<path class="st0" d="M29.7,14v-2.1h2.6V14H29.7z M29.8,25.9V15.8h2.5v10.1H29.8z"/>
<path class="st0" d="M38.6,26c-2,0-4.5-1.1-4.5-5.2s2.5-5.2,4.5-5.2c1.2,0,2.5,0.4,3.4,1.4l-1.7,1.7c-0.4-0.5-1-0.8-1.6-0.8
	c-0.6,0-1.1,0.2-1.4,0.7c-0.4,0.5-0.6,1.1-0.6,2.3s0.2,1.8,0.6,2.3c0.3,0.4,0.9,0.7,1.4,0.7c0.6,0,1.2-0.3,1.6-0.8l1.7,1.7
	C41.1,25.6,39.9,26.1,38.6,26z"/>
<path class="st0" d="M45,21.6c-0.1,1.1,0.8,2.2,1.9,2.3c0.1,0,0.2,0,0.3,0c0.9,0,1.7-0.3,2.3-1l1.5,1.5c-1,1.1-2.4,1.7-3.9,1.6
	c-2.4,0-4.7-1.1-4.7-5.2c0-3.3,1.8-5.2,4.5-5.2c2.8,0,4.5,2.1,4.5,4.9v1.1H45z M48.6,18.8c-0.5-1-1.6-1.3-2.6-0.8
	c-0.3,0.2-0.6,0.5-0.8,0.8c-0.1,0.3-0.2,0.7-0.2,1.1h3.9C48.8,19.5,48.8,19.1,48.6,18.8L48.6,18.8z"/>
<g>
	<polygon class="st1" points="63.7,23.2 60.6,12 60.6,11.8 59.1,11.8 56.1,23.2 53.3,11.8 51.7,11.8 55.3,26.2 56.8,26.2 59.9,14.7 
		63,26.2 64.4,26.2 68,11.8 66.4,11.8 	"/>
	<rect x="69.5" y="11.8" class="st1" width="1.5" height="14.4"/>
	<path class="st1" d="M81.4,19.3c-0.8-0.6-1.7-0.9-2.6-1l-1.5-0.2c-0.7-0.1-1.3-0.4-1.9-0.8c-0.4-0.4-0.7-1.1-0.6-1.7
		c0-0.7,0.3-1.4,0.8-1.9c0.6-0.5,1.4-0.8,2.2-0.7c1.2,0,2.3,0.4,3.2,1.2l0.2,0.2l1-1L82,13.3c-0.5-0.5-1.2-0.9-1.9-1.2
		c-0.8-0.3-1.6-0.3-2.2-0.3c0,0,0,0,0,0c-1.2-0.1-2.3,0.3-3.3,1.1c-0.8,0.8-1.3,1.9-1.2,2.9c-0.1,1,0.4,2.1,1.2,2.7
		c0.7,0.6,1.6,1,2.6,1.1l1.6,0.2c0.4,0.1,0.8,0.1,1.1,0.3c0.3,0.1,0.6,0.3,0.8,0.4c0.5,0.5,0.7,1.1,0.7,1.8c0,0.7-0.3,1.4-0.9,1.9
		c-0.8,0.5-1.6,0.8-2.5,0.7c-1.4,0.1-2.8-0.5-3.7-1.6l-0.2-0.2L73,24.2l0.2,0.2c0.6,0.6,1.3,1.1,2.1,1.4c0.8,0.3,1.7,0.4,2.7,0.4
		c0,0,0,0,0,0c0.1,0,0.1,0,0.2,0c1.2,0,2.4-0.4,3.4-1.1c0.9-0.8,1.4-1.9,1.3-3C82.9,21,82.4,20,81.4,19.3z"/>
	<polygon class="st1" points="94,13.2 94,11.8 85.1,11.8 85.1,26.2 94,26.2 94,24.7 86.7,24.7 86.7,19.7 92.9,19.7 92.9,18.3 
		86.7,18.3 86.7,13.2 	"/>
</g>
<path class="st1" d="M96.3,12c-0.9,0-1.7-0.8-1.7-1.7s0.8-1.7,1.7-1.7S98,9.5,98,10.4S97.2,12,96.3,12L96.3,12z M96.3,9.1
	c-0.7,0-1.3,0.6-1.3,1.2c0,0.7,0.6,1.3,1.2,1.3c0.7,0,1.3-0.6,1.3-1.2l0,0C97.6,9.7,97,9.1,96.3,9.1C96.3,9.1,96.3,9.1,96.3,9.1z
	 M96.6,11.3l-0.3-0.7h-0.2v0.7h-0.4V9.5h0.7c0.3,0,0.6,0.2,0.6,0.5c0,0,0,0,0,0c0,0.2-0.1,0.4-0.3,0.5l0.4,0.8L96.6,11.3z M96.4,9.8
	h-0.3v0.5h0.3c0.1,0,0.2-0.1,0.2-0.2S96.5,9.8,96.4,9.8z"/>
</svg>
